<svg xmlns="http://www.w3.org/2000/svg" width="1024" height="500" viewBox="0 0 1024 500">
<defs><linearGradient id="aurora" x1="96" y1="420" x2="416" y2="92" gradientUnits="userSpaceOnUse"><stop offset="0" stop-color="#22C7B8"/><stop offset="0.55" stop-color="#5B6CFF"/><stop offset="1" stop-color="#9B7BFF"/></linearGradient><filter id="glow" x="-50%" y="-50%" width="200%" height="200%"><feGaussianBlur stdDeviation="18"/></filter>
  <radialGradient id="skyA" cx="0.5" cy="0.5" r="0.5"><stop offset="0" stop-color="#5B6CFF" stop-opacity="0.35"/><stop offset="1" stop-color="#5B6CFF" stop-opacity="0"/></radialGradient>
  <radialGradient id="skyB" cx="0.5" cy="0.5" r="0.5"><stop offset="0" stop-color="#22C7B8" stop-opacity="0.22"/><stop offset="1" stop-color="#22C7B8" stop-opacity="0"/></radialGradient>
  <radialGradient id="skyC" cx="0.5" cy="0.5" r="0.5"><stop offset="0" stop-color="#9B7BFF" stop-opacity="0.25"/><stop offset="1" stop-color="#9B7BFF" stop-opacity="0"/></radialGradient>
</defs>
<rect width="1024" height="500" fill="#0B0D12"/>
<ellipse cx="230" cy="240" rx="330" ry="260" fill="url(#skyA)"/>
<ellipse cx="80" cy="430" rx="300" ry="200" fill="url(#skyB)"/>
<ellipse cx="900" cy="40" rx="380" ry="220" fill="url(#skyC)"/>
<g transform="translate(230 250) scale(0.95) translate(-256 -285)">
  <path d="M184 340 V172 L328 340 V172" fill="none" stroke="url(#aurora)" stroke-width="46" stroke-linecap="round" stroke-linejoin="round" filter="url(#glow)" opacity="0.7"/>
  <path d="M184 340 V172 L328 340 V172" fill="none" stroke="url(#aurora)" stroke-width="46" stroke-linecap="round" stroke-linejoin="round"/>
  <path d="M92 380 C170 430 342 430 420 380" fill="none" stroke="#EDEFF5" stroke-width="6" stroke-linecap="round" stroke-dasharray="2 14" opacity="0.55"/>
</g>
<text x="470" y="228" font-family="Instrument Sans" font-weight="600" font-size="84" fill="#EDEFF5">NomadSafe</text>
<text x="474" y="290" font-family="Instrument Sans" font-size="27" fill="#B6BACA">SOS, live location &amp; trip money —</text>
<text x="474" y="328" font-family="Instrument Sans" font-size="27" fill="#B6BACA">with an AI guide that runs on your phone.</text>
<linearGradient id="bar"><stop offset="0" stop-color="#22C7B8"/><stop offset="1" stop-color="#9B7BFF"/></linearGradient><rect x="474" y="358" width="72" height="5" rx="2.5" fill="url(#bar)"/>
</svg>
